HIERARCHY
ROOT Hips
{
	OFFSET 0.00000 0.00000 0.00000
	CHANNELS 6 Xposition Yposition Zposition Yrotation Zrotation Xrotation 
	JOINT Lumbar
	{
		OFFSET 0 0 0
		CHANNELS 3 Zrotation Xrotation Yrotation
		JOINT Neck
		{
			OFFSET 0.00 0.2701 0.00
			CHANNELS 3 Zrotation Xrotation Yrotation
			End Site
			{
				OFFSET 0.00 0.1379 0.00
			}
		}
		JOINT RightShoulder
		{
			OFFSET 0.0119 0.2289 0.1181
			CHANNELS 3 Zrotation Xrotation Yrotation
			JOINT RightElbow
			{
				OFFSET 0.00 -0.1475 0.00
				CHANNELS 2 Zrotation Yrotation
				JOINT RightWrist
				{
					OFFSET 0.00 -0.1605 0.00
					CHANNELS 2 Zrotation Xrotation
					End Site
					{
						OFFSET 0.0040 -0.1068 0.0006
					}
				}
			}
		}
		JOINT LeftShoulder
		{
			OFFSET 0.0119 0.2289 -0.1181
			CHANNELS 3 Zrotation Xrotation Yrotation
			JOINT LeftElbow
			{
				OFFSET 0.00 -0.1475 0.00
				CHANNELS 2 Zrotation Yrotation
				JOINT LeftWrist
				{
					OFFSET 0.00 -0.1605 0.00
					CHANNELS 2 Zrotation Xrotation
					End Site
					{
						OFFSET 0.0040 -0.1068 -0.0006
					}
				}
			}
		}
	}
	JOINT RightHip
	{
		OFFSET 0.0316 -0.0424 0.0458
		CHANNELS 3 Zrotation Xrotation Yrotation
		JOINT RightKnee
		{
			OFFSET 0.00 -0.2438 0.00
			CHANNELS 1 Zrotation
			JOINT RightAnkle
			{
				OFFSET 0.00 -0.2449 0.00
				CHANNELS 3 Zrotation Xrotation Yrotation
				End Site
				{
					OFFSET 0.1237 -0.0542 0.0051
				}
			}
		}
	}
	JOINT LeftHip
	{
		OFFSET 0.0316 -0.0424 -0.0458
		CHANNELS 3 Zrotation Xrotation Yrotation
		JOINT LeftKnee
		{
			OFFSET 0.00 -0.2438 0.00
			CHANNELS 1 Zrotation
			JOINT LeftAnkle
			{
				OFFSET 0.00 -0.2449 0.00
				CHANNELS 3 Zrotation Xrotation Yrotation
				End Site
				{
					OFFSET 0.1237 -0.0542 -0.0051
				}
			}
		}
	}
}
MOTION
Frames: 19
Frame Time: 0.02
0.12854 -0.03245 -0.40137 897.7711 -33.47933 -0.36097 32.40192 14.28556 2.34061 -17.2784 7.11003 -0.83079 -6.42794 -14.49378 -20.23824 18.79848 82.14354 -2.82105 0.75784 -54.13191 36.87589 -13.01703 100.63561 -108.88195 8.97938 -4.21699 29.65234 -0.03344 -9.79785 -33.53811 -5.53244 -2.93193 -2.11735 64.93017 7.31795 4.40722 -28.32694 -8.80744 2.08253 1.7839
0.11646 -0.03223 -0.39881 897.96946 -33.24846 -0.38082 32.28965 14.04334 2.20133 -17.40514 7.20794 -0.83079 -6.98386 -14.47821 -20.58138 18.84402 82.09998 -2.92756 1.06771 -54.2106 36.8069 -13.28405 100.11621 -105.94399 8.24792 -3.63218 29.24753 -0.43519 -9.32433 -35.40496 -5.6586 -2.90842 -2.10933 64.47072 6.94846 4.18406 -30.18266 -8.71784 2.08294 1.77928
0.10418 -0.03137 -0.39596 898.33036 -32.93525 -0.30107 32.1594 13.75506 1.97166 -17.52239 7.33517 -0.83079 -7.60952 -14.49854 -20.92049 18.89682 82.04826 -3.06936 1.39306 -54.16338 36.73103 -13.68296 99.47912 -100.94292 7.06695 -2.60623 29.04441 -0.93048 -8.62557 -37.65875 -5.83947 -2.89561 -2.10812 63.78067 6.46746 3.97431 -32.08211 -8.56493 2.08837 1.77487
0.09202 -0.0308 -0.39326 898.6176 -32.66461 -0.26401 32.04517 13.4837 1.77611 -17.64232 7.45095 -0.83079 -8.19586 -14.50034 -21.24109 18.95169 82.00128 -3.18983 1.71128 -54.18423 36.66127 -13.99722 98.92093 -97.0454 6.12143 -1.81793 28.79801 -1.38588 -8.03993 -39.77417 -6.01128 -2.87651 -2.10384 63.17241 6.05093 3.80716 -33.91791 -8.44166 2.08702 1.76798
0.07971 -0.03023 -0.39044 898.90296 -32.37047 -0.2369 31.89679 13.22616 1.61235 -17.76887 7.56093 -0.83079 -8.81765 -14.51101 -21.64946 18.98465 81.94983 -3.33407 2.03393 -54.16447 36.57775 -14.41142 98.25874 -92.48647 5.0499 -0.882 28.3473 -1.83599 -7.40902 -41.74502 -6.12062 -2.86158 -2.09865 62.65712 5.57955 3.44422 -35.97011 -8.31851 2.10178 1.7697
0.06768 -0.0295 -0.38782 899.23127 -32.10584 -0.16704 31.81517 12.93164 1.3588 -17.8793 7.68819 -0.83079 -9.38029 -14.51182 -21.87483 19.06427 81.90579 -3.43623 2.34903 -54.1946 36.52204 -14.65243 97.7825 -88.797 4.13264 -0.14427 28.36871 -2.3141 -6.82009 -44.09538 -6.36813 -2.84227 -2.09773 61.89419 5.19379 3.4806 -37.56865 -8.1789 2.08591 1.75444
0.05647 -0.02848 -0.38577 899.63742 -31.95008 0.01216 31.92815 12.52739 0.89453 -17.94964 7.86764 -0.83079 -9.76998 -14.47809 -21.57715 19.27573 81.88443 -3.4187 2.64471 -54.42779 36.54057 -14.35841 97.86728 -88.05271 3.74284 -0.07353 29.66217 -2.88427 -6.38691 -47.49729 -7.02477 -2.79469 -2.10113 60.51391 5.08292 4.71644 -37.91762 -8.00589 1.97638 1.68783
0.04556 -0.02731 -0.38393 900.08107 -31.82606 0.22809 32.10796 12.09136 0.34049 -18.00363 8.06113 -0.83079 -10.09581 -14.43314 -21.09842 19.5328 81.8708 -3.35665 2.9306 -54.70872 36.58807 -13.89033 98.13989 -88.24255 3.52444 -0.2141 31.42101 -3.47231 -6.00642 -51.24613 -7.81089 -2.74469 -2.10956 58.89137 5.06021 6.33642 -37.80149 -7.81862 1.83751 1.60503
0.03453 -0.0262 -0.38202 900.50891 -31.68284 0.41697 32.25365 11.68233 -0.18306 -18.06393 8.24042 -0.83079 -10.44583 -14.39226 -20.71435 19.76602 81.85348 -3.31131 3.21731 -54.94504 36.6254 -13.51841 98.31352 -87.97324 3.23232 -0.24907 32.95502 -4.02678 -5.61157 -54.77453 -8.51072 -2.70509 -2.11972 57.37367 4.98872 7.71284 -37.88511 -7.63949 1.71771 1.53277
0.02342 -0.02511 -0.38001 900.939 -31.55602 0.653 32.41489 11.21819 -0.66803 -18.12912 8.45381 -0.83079 -10.81939 -14.35641 -20.27798 20.01336 81.83655 -3.28152 3.52073 -55.27418 36.65047 -13.07937 98.53908 -87.77724 2.90725 -0.30923 34.55115 -4.69079 -5.16826 -58.59263 -9.3282 -2.62763 -2.11377 55.86936 4.9478 9.37471 -38.02048 -7.45099 1.57438 1.44735
0.01257 -0.02395 -0.37825 901.36896 -31.40472 0.79833 32.5594 10.86246 -1.25124 -18.17974 8.59907 -0.83079 -11.12701 -14.30764 -19.90756 20.24119 81.82083 -3.20901 3.7858 -55.42243 36.70725 -12.73667 98.70448 -87.67906 2.69707 -0.37276 36.12728 -5.13115 -4.8415 -61.87072 -9.93084 -2.62702 -2.14172 54.28345 4.86859 10.54097 -37.93614 -7.27971 1.47233 1.38513
0.00234 -0.02263 -0.37714 901.80763 -31.17002 0.68326 32.6455 10.80945 -2.10247 -18.19967 8.5527 -0.83079 -11.27458 -14.22003 -19.7637 20.41087 81.80602 -3.02323 3.95545 -55.06456 36.85177 -12.70575 98.64249 -87.61428 2.76636 -0.39636 37.52081 -4.93632 -4.82374 -63.68762 -9.90678 -2.85023 -2.26849 52.52643 4.63621 10.17443 -37.36401 -7.15727 1.49774 1.39425
-0.00763 -0.02127 -0.37627 902.24063 -30.91183 0.47546 32.71193 10.86776 -3.04524 -18.20456 8.43703 -0.83079 -11.35645 -14.12081 -19.69243 20.558 81.79235 -2.79705 4.08508 -54.52284 37.02601 -12.77653 98.51697 -87.62714 2.94667 -0.41778 38.87973 -4.518 -4.9229 -64.92443 -9.66223 -3.14863 -2.4279 50.69823 4.3672 9.30749 -36.58565 -7.05333 1.56468 1.42676
-0.01768 -0.01994 -0.37529 902.6635 -30.66973 0.3101 32.78457 10.87816 -3.93369 -18.2127 8.35314 -0.83079 -11.46382 -14.0305 -19.58787 20.71091 81.77849 -2.59315 4.22784 -54.06244 37.18177 -12.79804 98.4311 -87.62059 3.07587 -0.44079 40.26224 -4.2099 -4.9692 -66.35109 -9.51934 -3.4055 -2.56817 48.90652 4.13307 8.71739 -35.89791 -6.94275 1.6082 1.44628
-0.02786 -0.01853 -0.37429 903.14157 -30.40459 0.14431 32.87049 10.87586 -4.88011 -18.23522 8.269 -0.83079 -11.58734 -13.92415 -19.47835 20.88434 81.76329 -2.37083 4.39228 -53.61244 37.35902 -12.82648 98.30601 -87.57983 3.21418 -0.46839 41.62763 -3.86505 -5.01466 -68.10668 -9.37429 -3.69388 -2.72703 47.08679 3.82685 7.93777 -35.20666 -6.8244 1.66917 1.47484
-0.03772 -0.01729 -0.3734 903.50263 -30.18301 -0.04244 32.92391 10.92717 -5.72499 -18.22469 8.16816 -0.83079 -11.66251 -13.84899 -19.39866 21.00901 81.75132 -2.17828 4.50136 -53.09727 37.49885 -12.86683 98.24535 -87.61491 3.35688 -0.48321 43.01476 -3.54456 -5.0907 -69.02846 -9.18041 -3.93389 -2.85456 45.31413 3.65861 7.42184 -34.48032 -6.72652 1.70497 1.49081
-0.04683 -0.01646 -0.3727 903.54319 -30.07429 -0.27015 32.88633 11.09711 -6.27805 -18.1246 8.04308 -0.83079 -11.61982 -13.85935 -19.38569 21.00479 81.74578 -2.07449 4.4744 -52.44092 37.5222 -12.91642 98.37531 -87.85621 3.49157 -0.46289 44.46414 -3.33565 -5.20684 -67.84234 -8.8983 -4.02706 -2.88994 43.67002 3.9004 7.81704 -33.70551 -6.68365 1.65306 1.46211
-0.05564 -0.01581 -0.37209 903.46601 -30.01265 -0.51475 32.81768 11.31773 -6.72326 -17.99235 7.90258 -0.83079 -11.53121 -13.90213 -19.40104 20.952 81.74378 -2.00297 4.39185 -51.72666 37.5077 -12.97507 98.57187 -88.16391 3.62488 -0.42884 45.93516 -3.16051 -5.35163 -65.82663 -8.5753 -4.06796 -2.89215 42.08072 4.27835 8.48212 -32.90549 -6.66035 1.57595 1.42075
-0.06458 -0.01511 -0.37146 903.44137 -29.93779 -0.74819 32.76668 11.51679 -7.21018 -17.87601 7.76582 -0.83079 -11.46414 -13.93245 -19.40261 20.92108 81.74162 -1.91895 4.3302 -51.04226 37.51435 -13.02967 98.73892 -88.42611 3.75319 -0.40033 47.39832 -2.97703 -5.49433 -64.15302 -8.27529 -4.12952 -2.90802 40.47965 4.58007 8.98139 -32.12031 -6.62611 1.51592 1.38808
